<svg width="49" height="50" viewBox="0 0 49 50" fill="none" xmlns="http://www.w3.org/2000/svg">
<path fill-rule="evenodd" clip-rule="evenodd" d="M41 48H45V44H41V48Z" fill="#D8D4C5"/>
<mask id="path-2-outside-1_3595_59060" maskUnits="userSpaceOnUse" x="40" y="41" width="6" height="8" fill="black">
<rect fill="white" x="40" y="41" width="6" height="8"/>
<path fill-rule="evenodd" clip-rule="evenodd" d="M44 43V47H42V43"/>
</mask>
<path d="M46 43C46 41.8954 45.1046 41 44 41C42.8954 41 42 41.8954 42 43H46ZM44 47V49C45.1046 49 46 48.1046 46 47H44ZM42 47H40C40 48.1046 40.8954 49 42 49V47ZM44 43C44 41.8954 43.1046 41 42 41C40.8954 41 40 41.8954 40 43H44ZM42 43V47H46V43H42ZM44 45H42V49H44V45ZM44 47V43H40V47H44Z" fill="#0E259A" mask="url(#path-2-outside-1_3595_59060)"/>
<path fill-rule="evenodd" clip-rule="evenodd" d="M20 6.03709V3.50974C20 2.67653 21.0418 2 22.3275 2H45.6725C46.9582 2 48 2.67653 48 3.50974V28.4903C48 29.324 46.9582 30 45.6725 30H22.3275C21.0418 30 20 29.324 20 28.4903V16.2121" fill="#E1E5EF"/>
<path fill-rule="evenodd" clip-rule="evenodd" d="M20 32.0182V30.7543C20 30.3377 21.0418 30 22.3275 30H45.6725C46.9582 30 48 30.3377 48 30.7543V43.2451C48 43.6618 46.9582 44 45.6725 44H22.3275C21.0418 44 20 43.6618 20 43.2451V37.1058" fill="#A3B2CE"/>
<path d="M48 7.88538V4.20123C48 2.98531 46.9582 2 45.6725 2H22.3275C21.0418 2 20 2.98531 20 4.20123V41.7988C20 43.0147 21.0418 44 22.3275 44H45.6725C46.9582 44 48 43.0147 48 41.7988V23.8971" stroke="#0E259A" stroke-width="2" stroke-linecap="round"/>
<path d="M48 12.3555V19.4427" stroke="#0E259A" stroke-width="2" stroke-linecap="round"/>
<path d="M21.2168 36.5435H47.9994" stroke="#0E259A" stroke-width="2" stroke-linecap="round"/>
<path d="M20.5117 29.3672H47.2943" stroke="#0E259A" stroke-width="2" stroke-linecap="round"/>
<path d="M34 2V29" stroke="#0E259A" stroke-width="2" stroke-linecap="round"/>
<path d="M32.1738 32.8914H35.826" stroke="#0E259A" stroke-width="2" stroke-linecap="round"/>
<path d="M29.1302 23.8984V20.4739" stroke="#0E259A" stroke-width="2" stroke-linecap="round"/>
<path d="M38.8704 23.8984V20.4739" stroke="#0E259A" stroke-width="2" stroke-linecap="round"/>
<path d="M32.1738 40.1956H35.826" stroke="#0E259A" stroke-width="2" stroke-linecap="round"/>
<rect x="3.11133" y="42.0596" width="4.69713" height="6.23835" rx="2.34856" fill="#6A82EA" stroke="#0E259A" stroke-width="2" stroke-linecap="round" stroke-linejoin="round"/>
<rect x="21.8359" y="42.0596" width="4.69713" height="6.23835" rx="2.34856" fill="#6A82EA" stroke="#0E259A" stroke-width="2" stroke-linecap="round" stroke-linejoin="round"/>
<rect x="4" y="23" width="21" height="15" fill="#D7DBED"/>
<path d="M1.64258 30.4572C1.64258 29.5439 2.383 28.8035 3.29635 28.8035H6.15368C7.06703 28.8035 7.80744 29.5439 7.80744 30.4572V42.6181C7.80744 43.0748 7.43723 43.445 6.98056 43.445H2.46946C2.01279 43.445 1.64258 43.0748 1.64258 42.6181V30.4572Z" fill="#D7DBED"/>
<path d="M23.6055 36.5095L23.6055 43.445L6.26678 43.445L6.26678 36.5095L23.6055 36.5095Z" fill="#D7DBED"/>
<path fill-rule="evenodd" clip-rule="evenodd" d="M1 31.4807C1 30.1106 2.11063 29 3.48065 29H4.51935C5.88937 29 7 30.1106 7 31.4807V37L22 37V31.4807C22 30.1106 23.1106 29 24.4807 29H25.5193C26.8894 29 28 30.1106 28 31.4807V32.75V36.5V40.25V41.5193C28 42.8894 26.8894 44 25.5193 44L24 44L22.8269 44H6.17312H4H3.48065C2.11063 44 1 42.8894 1 41.5193V31.4807Z" fill="#D7DBED"/>
<path d="M7 37H6C6 37.5523 6.44772 38 7 38V37ZM22 37V38C22.2652 38 22.5196 37.8946 22.7071 37.7071C22.8946 37.5196 23 37.2652 23 37H22ZM25.5193 44V43V44ZM24 44V45V45V44ZM22.8269 44V43V44ZM3.48065 28C1.55834 28 0 29.5583 0 31.4807H2C2 30.6629 2.66291 30 3.48065 30V28ZM4.51935 28H3.48065V30H4.51935V28ZM8 31.4807C8 29.5583 6.44166 28 4.51935 28V30C5.33709 30 6 30.6629 6 31.4807H8ZM8 37V31.4807H6V37H8ZM22 36L7 36V38L22 38V36ZM23 37V31.4807H21V37H23ZM23 31.4807C23 30.6629 23.6629 30 24.4807 30V28C22.5583 28 21 29.5583 21 31.4807H23ZM24.4807 30H25.5193V28H24.4807V30ZM25.5193 30C26.3371 30 27 30.6629 27 31.4807H29C29 29.5583 27.4417 28 25.5193 28V30ZM27 31.4807V32.75H29V31.4807H27ZM27 32.75V36.5H29V32.75H27ZM27 36.5V40.25H29V36.5H27ZM27 40.25V41.5193H29V40.25H27ZM27 41.5193C27 42.3371 26.3371 43 25.5193 43V45C27.4417 45 29 43.4417 29 41.5193H27ZM25.5193 43L24 43V45H25.5193V43ZM22.8269 45H24V43L22.8269 43V45ZM6.17312 45H22.8269V43H6.17312V45ZM4 45H6.17312V43H4V45ZM3.48065 45H4V43H3.48065V45ZM0 41.5193C0 43.4417 1.55834 45 3.48065 45V43C2.66291 43 2 42.3371 2 41.5193H0ZM0 31.4807V41.5193H2V31.4807H0Z" fill="#0E259A"/>
<path d="M25 28V25.4807C25 24.1106 23.8894 23 22.5193 23H16.468L16.293 23M4 28V25.4807C4 24.1106 5.11063 23 6.48065 23H7.28012M10.8582 23H12.7877" stroke="#0E259A" stroke-width="2" stroke-linecap="round" stroke-linejoin="round"/>
<path d="M20 37H21V36V35.2C21 33.4327 19.5673 32 17.8 32H11.2C9.43269 32 8 33.4327 8 35.2V36V37H9H20Z" fill="#A3B2CE" stroke="#0E259A" stroke-width="2"/>
<path d="M22.5 15L3 15" stroke="#FD822E" stroke-width="2" stroke-linecap="round"/>
<path d="M29 5.99997L12 6" stroke="#FD822E" stroke-width="2" stroke-linecap="round"/>
<path d="M6 10L1.00005 14.9999L6 19.9999" stroke="#FD822E" stroke-width="2" stroke-linecap="round" stroke-linejoin="round"/>
<path d="M15 1L9.99995 6.00005L15 11.0001" stroke="#FD822E" stroke-width="2" stroke-linecap="round" stroke-linejoin="round"/>
</svg>
