<?xml version="1.0" encoding="utf-8"?>
<svg xmlns="http://www.w3.org/2000/svg" id="icon-sb-hand-truck-blue-color-48" x="0" y="0" version="1.1" viewBox="0 0 48 48" xml:space="preserve">
  <path fill="#d7dbed" fill-rule="evenodd" d="M43.1 32.4L29.2 37c-1.4.5-2.9-.3-3.4-1.7L19 15.2c-.5-1.4.3-2.9 1.7-3.4l13.9-4.6c1.4-.5 2.9.3 3.4 1.7L44.8 29c.4 1.4-.3 2.9-1.7 3.4z" clip-rule="evenodd"/>
  <path fill="#0e259a" fill-rule="evenodd" d="M43.4 33.3L29.5 38c-.4.1-.8.2-1.2.2-1.5 0-3-1-3.5-2.5L18 15.5c-.1-.4-.2-.8-.2-1.2 0-1.5 1-3 2.5-3.5l8.8-2.9c.5-.2 1.1.1 1.3.6.2.5-.1 1.1-.6 1.3l-8.8 3c-.7.2-1.1.9-1.1 1.6 0 .2 0 .4.1.5L26.7 35c.2.7.9 1.1 1.6 1.1.2 0 .3 0 .5-.1l13.9-4.6h.1c.8-.3 1.2-1.2.9-2L37 9.2c-.3-.9-1.2-1.3-2.1-1l-1.5.5c-.5.2-1.1-.1-1.3-.6-.2-.5.1-1.1.6-1.3l1.5-.5c.5-.2.9-.3 1.3-.3 1.5 0 3 1 3.5 2.5l6.8 20.2c.6 1.9-.5 4-2.4 4.6z" clip-rule="evenodd"/>
  <path fill="#0e259a" fill-rule="evenodd" d="M46.7 36.8l-14.9 5-.3.1-5.7 1.9-2.5.8-.9-2.5-2-6.1v-.1l-.1-.1-7.8-23.3-8.2 2.7c-.7.2-1.4-.1-1.7-.8-.2-.7.1-1.5.8-1.7l8.2-2.7-2.7-8.2C8.6 1 9 .3 9.7.1s1.5.1 1.7.8L22.5 34v.1l2.4 7.1 5.7-1.9.3-.1 14.9-4.9c.7-.2 1.5.1 1.7.8.3.7-.1 1.5-.8 1.7z" clip-rule="evenodd"/>
  <path fill="#fd822e" fill-rule="evenodd" d="M29.5 16.7c.6 1.6-.3 3.4-2 4l.9 2.7 3.2-1.1 1.9 5.7 3.2-1.1-3.8-11.3-3.4 1.1z" clip-rule="evenodd"/>
  <path fill="#f25d0d" fill-rule="evenodd" d="M31.6 22.4l1.9 5.7 3.2-1.1-.8-2.5c-.6-1.8-2.5-2.7-4.3-2.1z" clip-rule="evenodd"/>
  <path fill="#6a82ea" fill-rule="evenodd" d="M1 21.8c-.6 0-1-.4-1-1s.5-1 1-1h9.4c.6 0 1 .4 1 1s-.5 1-1 1H1z" clip-rule="evenodd"/>
  <path fill="#6a82ea" fill-rule="evenodd" d="M12.3 27.8c-.6 0-1-.4-1-1s.5-1 1-1H25c.6 0 1 .4 1 1s-.5 1-1 1H12.3z" clip-rule="evenodd"/>
  <path fill="#6a82ea" fill-rule="evenodd" d="M7.6 27.8h-2c-.6 0-1-.4-1-1s.5-1 1-1h2c.6 0 1 .4 1 1s-.4 1-1 1z" clip-rule="evenodd"/>
  <path fill="#3f3f3f" fill-rule="evenodd" d="M11.7 47.8H7c-.6 0-1-.4-1-1 0-.5.5-1 1-1h4.7c.6 0 1 .4 1 1 0 .5-.4 1-1 1z" clip-rule="evenodd"/>
  <path fill="#ababab" fill-rule="evenodd" d="M32.6 38c1.1 3.3-.7 6.9-4 8-3.3 1.1-6.9-.7-8-4-1.1-3.3.7-6.9 4-8 3.3-1.1 6.9.7 8 4z" clip-rule="evenodd"/>
  <path fill="#3f3f3f" fill-rule="evenodd" d="M44.4 45.8H31.1c1.8-1.4 2.9-3.5 2.9-5.8 0-.8-.1-1.5-.4-2.3-1.3-3.8-5.5-5.9-9.3-4.6-3.1 1-5 3.9-5 6.9 0 .8.1 1.5.4 2.3.5 1.4 1.4 2.6 2.5 3.5h-6.4c-.5 0-1 .5-1 1s.5 1 1 1h28.7c.5 0 1-.5 1-1s-.5-1-1.1-1zm-22.8-4.1c-.9-2.8.6-5.8 3.4-6.7 2.8-.9 5.8.6 6.8 3.3.2.6.3 1.1.3 1.7 0 2.2-1.4 4.3-3.6 5-3 .9-6-.6-6.9-3.3z" clip-rule="evenodd"/>
  <path fill="#3f3f3f" d="M29.8 38.9c-.6-1.7-2.5-2.7-4.2-2.1-1.7.6-2.7 2.5-2.1 4.2.6 1.7 2.5 2.7 4.2 2.1 1.7-.6 2.7-2.4 2.1-4.2z"/>
  <path fill="#6a82ea" fill-rule="evenodd" d="M27.9 39.5c.2.7-.1 1.4-.8 1.7-.7.2-1.5-.1-1.7-.8-.2-.7.1-1.4.8-1.7.7-.2 1.5.1 1.7.8z" clip-rule="evenodd"/>
</svg>
